<?xml version="1.0" encoding="UTF-8"?>
<svg width="32px" height="32px" viewBox="0 0 32 32" version="1.1" xmlns="http://www.w3.org/2000/svg" xmlns:xlink="http://www.w3.org/1999/xlink">
    <!-- Generator: sketchtool 46.2 (44496) - http://www.bohemiancoding.com/sketch -->
    <title>037771F3-6551-42FC-BEF3-36184DF44A0A</title>
    <desc>Created with sketchtool.</desc>
    <defs></defs>
    <g id="Page-1" stroke="none" stroke-width="1" fill="none" fill-rule="evenodd">
        <g id="icons-/-32-/-previous---hover">
            <g id="Icons-/-next-track---32px-Copy" transform="translate(16.000000, 16.000000) scale(-1, 1) translate(-16.000000, -16.000000) ">
                <g id="icons-/-pause---32px-copy-2">
                    <rect id="Rectangle-7" x="0" y="0" width="32" height="32"></rect>
                </g>
                <path d="M21,17.1428571 L10.4961389,23.1450635 L10.4961389,23.1450635 C10.0166215,23.4190734 9.40576683,23.2524767 9.13175686,22.7729593 C9.04541532,22.6218616 9,22.4508473 9,22.2768203 L9,9.72317968 L9,9.72317968 C9,9.17089493 9.44771525,8.72317968 10,8.72317968 C10.1740269,8.72317968 10.3450412,8.768595 10.4961389,8.85493654 L21,14.8571429 L21,9 L21,9 C21,8.44771525 21.4477153,8 22,8 C22.5522847,8 23,8.44771525 23,9 L23,23 C23,23.5522847 22.5522847,24 22,24 C21.4477153,24 21,23.5522847 21,23 L21,17.1428571 Z" id="Combined-Shape" fill="#FFFFFF"></path>
            </g>
        </g>
    </g>
</svg>